<mxfile host="app.diagrams.net" modified="2023-11-10T08:40:31.864Z" agent="Mozilla/5.0 (Windows NT 10.0; Win64; x64) AppleWebKit/537.36 (KHTML, like Gecko) Chrome/108.0.0.0 Safari/537.36" etag="YpRtwVTLhRyu9Z4bHtlU" version="22.1.0" type="github">
  <diagram id="AtXYXpfQOH2JiLXwy7oa" name="第 1 页">
    <mxGraphModel dx="880" dy="1279" grid="1" gridSize="10" guides="1" tooltips="1" connect="1" arrows="1" fold="1" page="1" pageScale="1" pageWidth="1169" pageHeight="827" math="0" shadow="0">
      <root>
        <mxCell id="0" />
        <mxCell id="1" parent="0" />
        <mxCell id="e7j7X2xoP23D985uZrlY-1" value="并发实战" style="swimlane;startSize=20;horizontal=1;containerType=tree;strokeColor=none;" parent="1" vertex="1">
          <mxGeometry x="80" y="-800" width="1390" height="1290" as="geometry">
            <mxRectangle x="90" y="-30" width="80" height="20" as="alternateBounds" />
          </mxGeometry>
        </mxCell>
        <mxCell id="e7j7X2xoP23D985uZrlY-2" value="" style="edgeStyle=entityRelationEdgeStyle;startArrow=none;endArrow=none;segment=10;curved=1;rounded=0;" parent="e7j7X2xoP23D985uZrlY-1" source="e7j7X2xoP23D985uZrlY-3" target="e7j7X2xoP23D985uZrlY-4" edge="1">
          <mxGeometry relative="1" as="geometry" />
        </mxCell>
        <mxCell id="e7j7X2xoP23D985uZrlY-3" value="并发编程" style="ellipse;whiteSpace=wrap;html=1;align=center;treeFolding=1;treeMoving=1;newEdgeStyle={&quot;edgeStyle&quot;:&quot;entityRelationEdgeStyle&quot;,&quot;startArrow&quot;:&quot;none&quot;,&quot;endArrow&quot;:&quot;none&quot;,&quot;segment&quot;:10,&quot;curved&quot;:1};fillColor=#60a917;fontColor=#ffffff;strokeColor=#2D7600;" parent="e7j7X2xoP23D985uZrlY-1" vertex="1">
          <mxGeometry x="170" y="410" width="100" height="40" as="geometry" />
        </mxCell>
        <mxCell id="e7j7X2xoP23D985uZrlY-4" value="理论" style="whiteSpace=wrap;html=1;rounded=1;arcSize=50;align=center;verticalAlign=middle;strokeWidth=1;autosize=1;spacing=4;treeFolding=1;treeMoving=1;newEdgeStyle={&quot;edgeStyle&quot;:&quot;entityRelationEdgeStyle&quot;,&quot;startArrow&quot;:&quot;none&quot;,&quot;endArrow&quot;:&quot;none&quot;,&quot;segment&quot;:10,&quot;curved&quot;:1};fillColor=#dae8fc;strokeColor=#6c8ebf;" parent="e7j7X2xoP23D985uZrlY-1" vertex="1" collapsed="1">
          <mxGeometry x="330" y="240" width="60" height="30" as="geometry" />
        </mxCell>
        <mxCell id="e7j7X2xoP23D985uZrlY-5" value="" style="edgeStyle=entityRelationEdgeStyle;startArrow=none;endArrow=none;segment=10;curved=1;rounded=0;" parent="e7j7X2xoP23D985uZrlY-1" source="e7j7X2xoP23D985uZrlY-3" target="e7j7X2xoP23D985uZrlY-6" edge="1">
          <mxGeometry relative="1" as="geometry">
            <mxPoint x="500" y="700" as="sourcePoint" />
          </mxGeometry>
        </mxCell>
        <mxCell id="e7j7X2xoP23D985uZrlY-6" value="工具" style="whiteSpace=wrap;html=1;rounded=1;arcSize=50;align=center;verticalAlign=middle;strokeWidth=1;autosize=1;spacing=4;treeFolding=1;treeMoving=1;newEdgeStyle={&quot;edgeStyle&quot;:&quot;entityRelationEdgeStyle&quot;,&quot;startArrow&quot;:&quot;none&quot;,&quot;endArrow&quot;:&quot;none&quot;,&quot;segment&quot;:10,&quot;curved&quot;:1};fillColor=#dae8fc;strokeColor=#6c8ebf;" parent="e7j7X2xoP23D985uZrlY-1" vertex="1" collapsed="1">
          <mxGeometry x="330" y="570" width="60" height="30" as="geometry" />
        </mxCell>
        <mxCell id="e7j7X2xoP23D985uZrlY-7" value="" style="edgeStyle=entityRelationEdgeStyle;startArrow=none;endArrow=none;segment=10;curved=1;rounded=0;" parent="e7j7X2xoP23D985uZrlY-1" source="e7j7X2xoP23D985uZrlY-6" target="e7j7X2xoP23D985uZrlY-8" edge="1" visible="0">
          <mxGeometry relative="1" as="geometry">
            <mxPoint x="490" y="850" as="sourcePoint" />
          </mxGeometry>
        </mxCell>
        <mxCell id="e7j7X2xoP23D985uZrlY-8" value="Lock" style="whiteSpace=wrap;html=1;rounded=1;arcSize=50;align=center;verticalAlign=middle;strokeWidth=1;autosize=1;spacing=4;treeFolding=1;treeMoving=1;newEdgeStyle={&quot;edgeStyle&quot;:&quot;entityRelationEdgeStyle&quot;,&quot;startArrow&quot;:&quot;none&quot;,&quot;endArrow&quot;:&quot;none&quot;,&quot;segment&quot;:10,&quot;curved&quot;:1};fillColor=#dae8fc;strokeColor=#6c8ebf;" parent="e7j7X2xoP23D985uZrlY-1" vertex="1" collapsed="1" visible="0">
          <mxGeometry x="495" y="310" width="70" height="30" as="geometry" />
        </mxCell>
        <mxCell id="e7j7X2xoP23D985uZrlY-9" value="" style="edgeStyle=entityRelationEdgeStyle;startArrow=none;endArrow=none;segment=10;curved=1;rounded=0;exitX=1;exitY=0.5;exitDx=0;exitDy=0;" parent="e7j7X2xoP23D985uZrlY-1" source="e7j7X2xoP23D985uZrlY-8" target="e7j7X2xoP23D985uZrlY-10" edge="1" visible="0">
          <mxGeometry relative="1" as="geometry">
            <mxPoint x="570" y="425" as="sourcePoint" />
          </mxGeometry>
        </mxCell>
        <mxCell id="e7j7X2xoP23D985uZrlY-10" value="Condition" style="whiteSpace=wrap;html=1;rounded=1;arcSize=50;align=center;verticalAlign=middle;strokeWidth=1;autosize=1;spacing=4;treeFolding=1;treeMoving=1;newEdgeStyle={&quot;edgeStyle&quot;:&quot;entityRelationEdgeStyle&quot;,&quot;startArrow&quot;:&quot;none&quot;,&quot;endArrow&quot;:&quot;none&quot;,&quot;segment&quot;:10,&quot;curved&quot;:1};fillColor=#dae8fc;strokeColor=#6c8ebf;" parent="e7j7X2xoP23D985uZrlY-1" vertex="1" visible="0">
          <mxGeometry x="637.5" y="420" width="90" height="30" as="geometry" />
        </mxCell>
        <mxCell id="e7j7X2xoP23D985uZrlY-11" value="" style="edgeStyle=entityRelationEdgeStyle;startArrow=none;endArrow=none;segment=10;curved=1;rounded=0;" parent="e7j7X2xoP23D985uZrlY-1" source="e7j7X2xoP23D985uZrlY-6" target="e7j7X2xoP23D985uZrlY-12" edge="1" visible="0">
          <mxGeometry relative="1" as="geometry">
            <mxPoint x="630" y="695" as="sourcePoint" />
          </mxGeometry>
        </mxCell>
        <mxCell id="e7j7X2xoP23D985uZrlY-12" value="Semaphore" style="whiteSpace=wrap;html=1;rounded=1;arcSize=50;align=center;verticalAlign=middle;strokeWidth=1;autosize=1;spacing=4;treeFolding=1;treeMoving=1;newEdgeStyle={&quot;edgeStyle&quot;:&quot;entityRelationEdgeStyle&quot;,&quot;startArrow&quot;:&quot;none&quot;,&quot;endArrow&quot;:&quot;none&quot;,&quot;segment&quot;:10,&quot;curved&quot;:1};fillColor=#dae8fc;strokeColor=#6c8ebf;" parent="e7j7X2xoP23D985uZrlY-1" vertex="1" collapsed="1" visible="0">
          <mxGeometry x="480" y="385" width="100" height="30" as="geometry" />
        </mxCell>
        <mxCell id="e7j7X2xoP23D985uZrlY-13" value="acquire()" style="whiteSpace=wrap;html=1;shape=partialRectangle;top=0;left=0;bottom=1;right=0;points=[[0,1],[1,1]];fillColor=none;align=center;verticalAlign=bottom;routingCenterY=0.5;snapToPoint=1;recursiveResize=0;autosize=1;treeFolding=1;treeMoving=1;newEdgeStyle={&quot;edgeStyle&quot;:&quot;entityRelationEdgeStyle&quot;,&quot;startArrow&quot;:&quot;none&quot;,&quot;endArrow&quot;:&quot;none&quot;,&quot;segment&quot;:10,&quot;curved&quot;:1};" parent="e7j7X2xoP23D985uZrlY-1" vertex="1" collapsed="1" visible="0">
          <mxGeometry x="665" y="330" width="80" height="20" as="geometry" />
        </mxCell>
        <mxCell id="e7j7X2xoP23D985uZrlY-14" value="" style="edgeStyle=entityRelationEdgeStyle;startArrow=none;endArrow=none;segment=10;curved=1;rounded=0;exitX=1;exitY=0.5;exitDx=0;exitDy=0;" parent="e7j7X2xoP23D985uZrlY-1" source="e7j7X2xoP23D985uZrlY-12" target="e7j7X2xoP23D985uZrlY-13" edge="1" visible="0">
          <mxGeometry relative="1" as="geometry">
            <mxPoint x="540" y="720" as="sourcePoint" />
          </mxGeometry>
        </mxCell>
        <mxCell id="e7j7X2xoP23D985uZrlY-15" value="" style="edgeStyle=entityRelationEdgeStyle;startArrow=none;endArrow=none;segment=10;curved=1;rounded=0;exitX=1;exitY=0.5;exitDx=0;exitDy=0;" parent="e7j7X2xoP23D985uZrlY-1" source="e7j7X2xoP23D985uZrlY-12" target="e7j7X2xoP23D985uZrlY-16" edge="1" visible="0">
          <mxGeometry relative="1" as="geometry">
            <mxPoint x="825" y="855" as="sourcePoint" />
          </mxGeometry>
        </mxCell>
        <mxCell id="e7j7X2xoP23D985uZrlY-16" value="release()" style="whiteSpace=wrap;html=1;shape=partialRectangle;top=0;left=0;bottom=1;right=0;points=[[0,1],[1,1]];fillColor=none;align=center;verticalAlign=bottom;routingCenterY=0.5;snapToPoint=1;recursiveResize=0;autosize=1;treeFolding=1;treeMoving=1;newEdgeStyle={&quot;edgeStyle&quot;:&quot;entityRelationEdgeStyle&quot;,&quot;startArrow&quot;:&quot;none&quot;,&quot;endArrow&quot;:&quot;none&quot;,&quot;segment&quot;:10,&quot;curved&quot;:1};" parent="e7j7X2xoP23D985uZrlY-1" vertex="1" collapsed="1" visible="0">
          <mxGeometry x="665" y="380" width="80" height="20" as="geometry" />
        </mxCell>
        <mxCell id="e7j7X2xoP23D985uZrlY-17" value="await()" style="whiteSpace=wrap;html=1;shape=partialRectangle;top=0;left=0;bottom=1;right=0;points=[[0,1],[1,1]];fillColor=none;align=center;verticalAlign=bottom;routingCenterY=0.5;snapToPoint=1;recursiveResize=0;autosize=1;treeFolding=1;treeMoving=1;newEdgeStyle={&quot;edgeStyle&quot;:&quot;entityRelationEdgeStyle&quot;,&quot;startArrow&quot;:&quot;none&quot;,&quot;endArrow&quot;:&quot;none&quot;,&quot;segment&quot;:10,&quot;curved&quot;:1};" parent="e7j7X2xoP23D985uZrlY-1" vertex="1" visible="0">
          <mxGeometry x="760" y="382.5" width="70" height="20" as="geometry" />
        </mxCell>
        <mxCell id="e7j7X2xoP23D985uZrlY-18" value="" style="edgeStyle=entityRelationEdgeStyle;startArrow=none;endArrow=none;segment=10;curved=1;rounded=0;exitX=1;exitY=0.5;exitDx=0;exitDy=0;" parent="e7j7X2xoP23D985uZrlY-1" source="e7j7X2xoP23D985uZrlY-10" target="e7j7X2xoP23D985uZrlY-17" edge="1" visible="0">
          <mxGeometry relative="1" as="geometry">
            <mxPoint x="602.5" y="390" as="sourcePoint" />
          </mxGeometry>
        </mxCell>
        <mxCell id="e7j7X2xoP23D985uZrlY-19" value="" style="edgeStyle=entityRelationEdgeStyle;startArrow=none;endArrow=none;segment=10;curved=1;rounded=0;exitX=1;exitY=0.5;exitDx=0;exitDy=0;" parent="e7j7X2xoP23D985uZrlY-1" source="e7j7X2xoP23D985uZrlY-10" target="e7j7X2xoP23D985uZrlY-20" edge="1" visible="0">
          <mxGeometry relative="1" as="geometry">
            <mxPoint x="877.5" y="571" as="sourcePoint" />
          </mxGeometry>
        </mxCell>
        <mxCell id="e7j7X2xoP23D985uZrlY-20" value="signal()" style="whiteSpace=wrap;html=1;shape=partialRectangle;top=0;left=0;bottom=1;right=0;points=[[0,1],[1,1]];fillColor=none;align=center;verticalAlign=bottom;routingCenterY=0.5;snapToPoint=1;recursiveResize=0;autosize=1;treeFolding=1;treeMoving=1;newEdgeStyle={&quot;edgeStyle&quot;:&quot;entityRelationEdgeStyle&quot;,&quot;startArrow&quot;:&quot;none&quot;,&quot;endArrow&quot;:&quot;none&quot;,&quot;segment&quot;:10,&quot;curved&quot;:1};" parent="e7j7X2xoP23D985uZrlY-1" vertex="1" visible="0">
          <mxGeometry x="760" y="447.5" width="70" height="20" as="geometry" />
        </mxCell>
        <mxCell id="e7j7X2xoP23D985uZrlY-21" value="" style="edgeStyle=entityRelationEdgeStyle;startArrow=none;endArrow=none;segment=10;curved=1;rounded=0;exitX=1;exitY=0.5;exitDx=0;exitDy=0;" parent="e7j7X2xoP23D985uZrlY-1" source="e7j7X2xoP23D985uZrlY-12" target="e7j7X2xoP23D985uZrlY-22" edge="1" visible="0">
          <mxGeometry relative="1" as="geometry">
            <mxPoint x="825" y="915" as="sourcePoint" />
          </mxGeometry>
        </mxCell>
        <mxCell id="e7j7X2xoP23D985uZrlY-22" value="允许多个线程访问一个临界区" style="whiteSpace=wrap;html=1;shape=partialRectangle;top=0;left=0;bottom=1;right=0;points=[[0,1],[1,1]];fillColor=none;align=center;verticalAlign=bottom;routingCenterY=0.5;snapToPoint=1;recursiveResize=0;autosize=1;treeFolding=1;treeMoving=1;newEdgeStyle={&quot;edgeStyle&quot;:&quot;entityRelationEdgeStyle&quot;,&quot;startArrow&quot;:&quot;none&quot;,&quot;endArrow&quot;:&quot;none&quot;,&quot;segment&quot;:10,&quot;curved&quot;:1};" parent="e7j7X2xoP23D985uZrlY-1" vertex="1" collapsed="1" visible="0">
          <mxGeometry x="610" y="430" width="190" height="20" as="geometry" />
        </mxCell>
        <mxCell id="e7j7X2xoP23D985uZrlY-23" value="" style="edgeStyle=entityRelationEdgeStyle;startArrow=none;endArrow=none;segment=10;curved=1;rounded=0;exitX=1;exitY=0.5;exitDx=0;exitDy=0;" parent="e7j7X2xoP23D985uZrlY-1" source="e7j7X2xoP23D985uZrlY-8" target="e7j7X2xoP23D985uZrlY-24" edge="1" visible="0">
          <mxGeometry relative="1" as="geometry">
            <mxPoint x="790" y="595" as="sourcePoint" />
          </mxGeometry>
        </mxCell>
        <mxCell id="e7j7X2xoP23D985uZrlY-24" value="StampedLock" style="whiteSpace=wrap;html=1;rounded=1;arcSize=50;align=center;verticalAlign=middle;strokeWidth=1;autosize=1;spacing=4;treeFolding=1;treeMoving=1;newEdgeStyle={&quot;edgeStyle&quot;:&quot;entityRelationEdgeStyle&quot;,&quot;startArrow&quot;:&quot;none&quot;,&quot;endArrow&quot;:&quot;none&quot;,&quot;segment&quot;:10,&quot;curved&quot;:1};fillColor=#dae8fc;strokeColor=#6c8ebf;" parent="e7j7X2xoP23D985uZrlY-1" vertex="1" visible="0">
          <mxGeometry x="627.5" y="590" width="110" height="30" as="geometry" />
        </mxCell>
        <mxCell id="e7j7X2xoP23D985uZrlY-25" value="readLock" style="whiteSpace=wrap;html=1;shape=partialRectangle;top=0;left=0;bottom=1;right=0;points=[[0,1],[1,1]];fillColor=none;align=center;verticalAlign=bottom;routingCenterY=0.5;snapToPoint=1;recursiveResize=0;autosize=1;treeFolding=1;treeMoving=1;newEdgeStyle={&quot;edgeStyle&quot;:&quot;entityRelationEdgeStyle&quot;,&quot;startArrow&quot;:&quot;none&quot;,&quot;endArrow&quot;:&quot;none&quot;,&quot;segment&quot;:10,&quot;curved&quot;:1};" parent="e7j7X2xoP23D985uZrlY-1" vertex="1" visible="0">
          <mxGeometry x="780" y="510" width="80" height="20" as="geometry" />
        </mxCell>
        <mxCell id="e7j7X2xoP23D985uZrlY-26" value="" style="edgeStyle=entityRelationEdgeStyle;startArrow=none;endArrow=none;segment=10;curved=1;rounded=0;exitX=1;exitY=0.5;exitDx=0;exitDy=0;" parent="e7j7X2xoP23D985uZrlY-1" source="e7j7X2xoP23D985uZrlY-24" target="e7j7X2xoP23D985uZrlY-25" edge="1" visible="0">
          <mxGeometry relative="1" as="geometry">
            <mxPoint x="737.5" y="600" as="sourcePoint" />
          </mxGeometry>
        </mxCell>
        <mxCell id="e7j7X2xoP23D985uZrlY-27" value="" style="edgeStyle=entityRelationEdgeStyle;startArrow=none;endArrow=none;segment=10;curved=1;rounded=0;exitX=1;exitY=0.5;exitDx=0;exitDy=0;" parent="e7j7X2xoP23D985uZrlY-1" source="e7j7X2xoP23D985uZrlY-24" target="e7j7X2xoP23D985uZrlY-28" edge="1" visible="0">
          <mxGeometry relative="1" as="geometry">
            <mxPoint x="917.5" y="730" as="sourcePoint" />
          </mxGeometry>
        </mxCell>
        <mxCell id="e7j7X2xoP23D985uZrlY-28" value="writeLock" style="whiteSpace=wrap;html=1;shape=partialRectangle;top=0;left=0;bottom=1;right=0;points=[[0,1],[1,1]];fillColor=none;align=center;verticalAlign=bottom;routingCenterY=0.5;snapToPoint=1;recursiveResize=0;autosize=1;treeFolding=1;treeMoving=1;newEdgeStyle={&quot;edgeStyle&quot;:&quot;entityRelationEdgeStyle&quot;,&quot;startArrow&quot;:&quot;none&quot;,&quot;endArrow&quot;:&quot;none&quot;,&quot;segment&quot;:10,&quot;curved&quot;:1};" parent="e7j7X2xoP23D985uZrlY-1" vertex="1" visible="0">
          <mxGeometry x="780" y="540" width="80" height="20" as="geometry" />
        </mxCell>
        <mxCell id="e7j7X2xoP23D985uZrlY-29" value="" style="edgeStyle=entityRelationEdgeStyle;startArrow=none;endArrow=none;segment=10;curved=1;rounded=0;exitX=1;exitY=0.5;exitDx=0;exitDy=0;" parent="e7j7X2xoP23D985uZrlY-1" source="e7j7X2xoP23D985uZrlY-24" target="e7j7X2xoP23D985uZrlY-30" edge="1" visible="0">
          <mxGeometry relative="1" as="geometry">
            <mxPoint x="917.5" y="735" as="sourcePoint" />
          </mxGeometry>
        </mxCell>
        <mxCell id="e7j7X2xoP23D985uZrlY-30" value="tryOptimisticRead" style="whiteSpace=wrap;html=1;shape=partialRectangle;top=0;left=0;bottom=1;right=0;points=[[0,1],[1,1]];fillColor=none;align=center;verticalAlign=bottom;routingCenterY=0.5;snapToPoint=1;recursiveResize=0;autosize=1;treeFolding=1;treeMoving=1;newEdgeStyle={&quot;edgeStyle&quot;:&quot;entityRelationEdgeStyle&quot;,&quot;startArrow&quot;:&quot;none&quot;,&quot;endArrow&quot;:&quot;none&quot;,&quot;segment&quot;:10,&quot;curved&quot;:1};" parent="e7j7X2xoP23D985uZrlY-1" vertex="1" visible="0">
          <mxGeometry x="785" y="570" width="130" height="20" as="geometry" />
        </mxCell>
        <mxCell id="e7j7X2xoP23D985uZrlY-31" value="" style="edgeStyle=entityRelationEdgeStyle;startArrow=none;endArrow=none;segment=10;curved=1;rounded=0;exitX=1;exitY=0.5;exitDx=0;exitDy=0;" parent="e7j7X2xoP23D985uZrlY-1" source="e7j7X2xoP23D985uZrlY-24" target="e7j7X2xoP23D985uZrlY-32" edge="1" visible="0">
          <mxGeometry relative="1" as="geometry">
            <mxPoint x="917.5" y="735" as="sourcePoint" />
          </mxGeometry>
        </mxCell>
        <mxCell id="e7j7X2xoP23D985uZrlY-32" value="validate(stamp)" style="whiteSpace=wrap;html=1;shape=partialRectangle;top=0;left=0;bottom=1;right=0;points=[[0,1],[1,1]];fillColor=none;align=center;verticalAlign=bottom;routingCenterY=0.5;snapToPoint=1;recursiveResize=0;autosize=1;treeFolding=1;treeMoving=1;newEdgeStyle={&quot;edgeStyle&quot;:&quot;entityRelationEdgeStyle&quot;,&quot;startArrow&quot;:&quot;none&quot;,&quot;endArrow&quot;:&quot;none&quot;,&quot;segment&quot;:10,&quot;curved&quot;:1};" parent="e7j7X2xoP23D985uZrlY-1" vertex="1" visible="0">
          <mxGeometry x="795" y="620" width="110" height="20" as="geometry" />
        </mxCell>
        <mxCell id="e7j7X2xoP23D985uZrlY-33" value="" style="edgeStyle=entityRelationEdgeStyle;startArrow=none;endArrow=none;segment=10;curved=1;rounded=0;exitX=1;exitY=0.5;exitDx=0;exitDy=0;" parent="e7j7X2xoP23D985uZrlY-1" source="e7j7X2xoP23D985uZrlY-24" target="e7j7X2xoP23D985uZrlY-34" edge="1" visible="0">
          <mxGeometry relative="1" as="geometry">
            <mxPoint x="917.5" y="735" as="sourcePoint" />
          </mxGeometry>
        </mxCell>
        <mxCell id="e7j7X2xoP23D985uZrlY-34" value="tryConvertToReadLock" style="whiteSpace=wrap;html=1;shape=partialRectangle;top=0;left=0;bottom=1;right=0;points=[[0,1],[1,1]];fillColor=none;align=center;verticalAlign=bottom;routingCenterY=0.5;snapToPoint=1;recursiveResize=0;autosize=1;treeFolding=1;treeMoving=1;newEdgeStyle={&quot;edgeStyle&quot;:&quot;entityRelationEdgeStyle&quot;,&quot;startArrow&quot;:&quot;none&quot;,&quot;endArrow&quot;:&quot;none&quot;,&quot;segment&quot;:10,&quot;curved&quot;:1};" parent="e7j7X2xoP23D985uZrlY-1" vertex="1" visible="0">
          <mxGeometry x="780" y="660" width="150" height="20" as="geometry" />
        </mxCell>
        <mxCell id="e7j7X2xoP23D985uZrlY-35" value="" style="edgeStyle=entityRelationEdgeStyle;startArrow=none;endArrow=none;segment=10;curved=1;rounded=0;exitX=1;exitY=0.5;exitDx=0;exitDy=0;" parent="e7j7X2xoP23D985uZrlY-1" source="e7j7X2xoP23D985uZrlY-24" target="e7j7X2xoP23D985uZrlY-36" edge="1" visible="0">
          <mxGeometry relative="1" as="geometry">
            <mxPoint x="917.5" y="735" as="sourcePoint" />
          </mxGeometry>
        </mxCell>
        <mxCell id="e7j7X2xoP23D985uZrlY-36" value="tryConvertToWriteLock" style="whiteSpace=wrap;html=1;shape=partialRectangle;top=0;left=0;bottom=1;right=0;points=[[0,1],[1,1]];fillColor=none;align=center;verticalAlign=bottom;routingCenterY=0.5;snapToPoint=1;recursiveResize=0;autosize=1;treeFolding=1;treeMoving=1;newEdgeStyle={&quot;edgeStyle&quot;:&quot;entityRelationEdgeStyle&quot;,&quot;startArrow&quot;:&quot;none&quot;,&quot;endArrow&quot;:&quot;none&quot;,&quot;segment&quot;:10,&quot;curved&quot;:1};" parent="e7j7X2xoP23D985uZrlY-1" vertex="1" visible="0">
          <mxGeometry x="785" y="700" width="150" height="20" as="geometry" />
        </mxCell>
        <mxCell id="e7j7X2xoP23D985uZrlY-37" value="ReentrantLock" style="whiteSpace=wrap;html=1;rounded=1;arcSize=50;align=center;verticalAlign=middle;strokeWidth=1;autosize=1;spacing=4;treeFolding=1;treeMoving=1;newEdgeStyle={&quot;edgeStyle&quot;:&quot;entityRelationEdgeStyle&quot;,&quot;startArrow&quot;:&quot;none&quot;,&quot;endArrow&quot;:&quot;none&quot;,&quot;segment&quot;:10,&quot;curved&quot;:1};fillColor=#dae8fc;strokeColor=#6c8ebf;" parent="e7j7X2xoP23D985uZrlY-1" vertex="1" visible="0">
          <mxGeometry x="620" y="244" width="120" height="30" as="geometry" />
        </mxCell>
        <mxCell id="e7j7X2xoP23D985uZrlY-38" value="" style="edgeStyle=entityRelationEdgeStyle;startArrow=none;endArrow=none;segment=10;curved=1;rounded=0;exitX=1;exitY=0.5;exitDx=0;exitDy=0;" parent="e7j7X2xoP23D985uZrlY-1" source="e7j7X2xoP23D985uZrlY-37" target="e7j7X2xoP23D985uZrlY-39" edge="1" visible="0">
          <mxGeometry relative="1" as="geometry">
            <mxPoint x="760" y="339" as="sourcePoint" />
          </mxGeometry>
        </mxCell>
        <mxCell id="e7j7X2xoP23D985uZrlY-39" value="lock()" style="whiteSpace=wrap;html=1;shape=partialRectangle;top=0;left=0;bottom=1;right=0;points=[[0,1],[1,1]];fillColor=none;align=center;verticalAlign=bottom;routingCenterY=0.5;snapToPoint=1;recursiveResize=0;autosize=1;treeFolding=1;treeMoving=1;newEdgeStyle={&quot;edgeStyle&quot;:&quot;entityRelationEdgeStyle&quot;,&quot;startArrow&quot;:&quot;none&quot;,&quot;endArrow&quot;:&quot;none&quot;,&quot;segment&quot;:10,&quot;curved&quot;:1};" parent="e7j7X2xoP23D985uZrlY-1" vertex="1" visible="0" collapsed="1">
          <mxGeometry x="760" y="160" width="60" height="20" as="geometry" />
        </mxCell>
        <mxCell id="e7j7X2xoP23D985uZrlY-40" value="" style="edgeStyle=entityRelationEdgeStyle;startArrow=none;endArrow=none;segment=10;curved=1;rounded=0;exitX=1;exitY=0.5;exitDx=0;exitDy=0;" parent="e7j7X2xoP23D985uZrlY-1" source="e7j7X2xoP23D985uZrlY-37" target="e7j7X2xoP23D985uZrlY-41" edge="1" visible="0">
          <mxGeometry relative="1" as="geometry">
            <mxPoint x="1040" y="509" as="sourcePoint" />
          </mxGeometry>
        </mxCell>
        <mxCell id="e7j7X2xoP23D985uZrlY-41" value="unlock()" style="whiteSpace=wrap;html=1;shape=partialRectangle;top=0;left=0;bottom=1;right=0;points=[[0,1],[1,1]];fillColor=none;align=center;verticalAlign=bottom;routingCenterY=0.5;snapToPoint=1;recursiveResize=0;autosize=1;treeFolding=1;treeMoving=1;newEdgeStyle={&quot;edgeStyle&quot;:&quot;entityRelationEdgeStyle&quot;,&quot;startArrow&quot;:&quot;none&quot;,&quot;endArrow&quot;:&quot;none&quot;,&quot;segment&quot;:10,&quot;curved&quot;:1};" parent="e7j7X2xoP23D985uZrlY-1" vertex="1" visible="0">
          <mxGeometry x="790" y="240" width="80" height="20" as="geometry" />
        </mxCell>
        <mxCell id="e7j7X2xoP23D985uZrlY-42" value="" style="edgeStyle=entityRelationEdgeStyle;startArrow=none;endArrow=none;segment=10;curved=1;rounded=0;" parent="e7j7X2xoP23D985uZrlY-1" source="e7j7X2xoP23D985uZrlY-37" target="e7j7X2xoP23D985uZrlY-43" edge="1" visible="0">
          <mxGeometry relative="1" as="geometry">
            <mxPoint x="860" y="509" as="sourcePoint" />
          </mxGeometry>
        </mxCell>
        <mxCell id="e7j7X2xoP23D985uZrlY-43" value="ReentrantReadWriteLock" style="whiteSpace=wrap;html=1;rounded=1;arcSize=50;align=center;verticalAlign=middle;strokeWidth=1;autosize=1;spacing=4;treeFolding=1;treeMoving=1;newEdgeStyle={&quot;edgeStyle&quot;:&quot;entityRelationEdgeStyle&quot;,&quot;startArrow&quot;:&quot;none&quot;,&quot;endArrow&quot;:&quot;none&quot;,&quot;segment&quot;:10,&quot;curved&quot;:1};fillColor=#dae8fc;strokeColor=#6c8ebf;" parent="e7j7X2xoP23D985uZrlY-1" vertex="1" visible="0">
          <mxGeometry x="760" y="330" width="180" height="30" as="geometry" />
        </mxCell>
        <mxCell id="e7j7X2xoP23D985uZrlY-44" value="" style="edgeStyle=entityRelationEdgeStyle;startArrow=none;endArrow=none;segment=10;curved=1;rounded=0;exitX=1;exitY=0.5;exitDx=0;exitDy=0;" parent="e7j7X2xoP23D985uZrlY-1" source="e7j7X2xoP23D985uZrlY-43" target="e7j7X2xoP23D985uZrlY-45" edge="1" visible="0">
          <mxGeometry relative="1" as="geometry">
            <mxPoint x="920" y="419" as="sourcePoint" />
          </mxGeometry>
        </mxCell>
        <mxCell id="e7j7X2xoP23D985uZrlY-45" value="readLock()" style="whiteSpace=wrap;html=1;shape=partialRectangle;top=0;left=0;bottom=1;right=0;points=[[0,1],[1,1]];fillColor=none;align=center;verticalAlign=bottom;routingCenterY=0.5;snapToPoint=1;recursiveResize=0;autosize=1;treeFolding=1;treeMoving=1;newEdgeStyle={&quot;edgeStyle&quot;:&quot;entityRelationEdgeStyle&quot;,&quot;startArrow&quot;:&quot;none&quot;,&quot;endArrow&quot;:&quot;none&quot;,&quot;segment&quot;:10,&quot;curved&quot;:1};" parent="e7j7X2xoP23D985uZrlY-1" vertex="1" visible="0">
          <mxGeometry x="960" y="300" width="90" height="20" as="geometry" />
        </mxCell>
        <mxCell id="e7j7X2xoP23D985uZrlY-46" value="" style="edgeStyle=entityRelationEdgeStyle;startArrow=none;endArrow=none;segment=10;curved=1;rounded=0;exitX=1;exitY=0.5;exitDx=0;exitDy=0;" parent="e7j7X2xoP23D985uZrlY-1" source="e7j7X2xoP23D985uZrlY-43" target="e7j7X2xoP23D985uZrlY-48" edge="1" visible="0">
          <mxGeometry relative="1" as="geometry">
            <mxPoint x="1150" y="549" as="sourcePoint" />
          </mxGeometry>
        </mxCell>
        <mxCell id="e7j7X2xoP23D985uZrlY-47" value="" style="edgeStyle=entityRelationEdgeStyle;startArrow=none;endArrow=none;segment=10;curved=1;rounded=0;" parent="e7j7X2xoP23D985uZrlY-1" source="e7j7X2xoP23D985uZrlY-8" target="e7j7X2xoP23D985uZrlY-37" edge="1" visible="0">
          <mxGeometry relative="1" as="geometry">
            <mxPoint x="720" y="710" as="sourcePoint" />
          </mxGeometry>
        </mxCell>
        <mxCell id="e7j7X2xoP23D985uZrlY-48" value="writeLock()" style="whiteSpace=wrap;html=1;shape=partialRectangle;top=0;left=0;bottom=1;right=0;points=[[0,1],[1,1]];fillColor=none;align=center;verticalAlign=bottom;routingCenterY=0.5;snapToPoint=1;recursiveResize=0;autosize=1;treeFolding=1;treeMoving=1;newEdgeStyle={&quot;edgeStyle&quot;:&quot;entityRelationEdgeStyle&quot;,&quot;startArrow&quot;:&quot;none&quot;,&quot;endArrow&quot;:&quot;none&quot;,&quot;segment&quot;:10,&quot;curved&quot;:1};" parent="e7j7X2xoP23D985uZrlY-1" vertex="1" visible="0">
          <mxGeometry x="960" y="380" width="90" height="20" as="geometry" />
        </mxCell>
        <mxCell id="e7j7X2xoP23D985uZrlY-49" value="" style="edgeStyle=entityRelationEdgeStyle;startArrow=none;endArrow=none;segment=10;curved=1;rounded=0;" parent="e7j7X2xoP23D985uZrlY-1" source="e7j7X2xoP23D985uZrlY-6" target="e7j7X2xoP23D985uZrlY-50" edge="1" visible="0">
          <mxGeometry relative="1" as="geometry">
            <mxPoint x="440" y="545" as="sourcePoint" />
          </mxGeometry>
        </mxCell>
        <mxCell id="e7j7X2xoP23D985uZrlY-50" value="CountDownLatch" style="whiteSpace=wrap;html=1;rounded=1;arcSize=50;align=center;verticalAlign=middle;strokeWidth=1;autosize=1;spacing=4;treeFolding=1;treeMoving=1;newEdgeStyle={&quot;edgeStyle&quot;:&quot;entityRelationEdgeStyle&quot;,&quot;startArrow&quot;:&quot;none&quot;,&quot;endArrow&quot;:&quot;none&quot;,&quot;segment&quot;:10,&quot;curved&quot;:1};fillColor=#dae8fc;strokeColor=#6c8ebf;" parent="e7j7X2xoP23D985uZrlY-1" vertex="1" collapsed="1" visible="0">
          <mxGeometry x="465" y="470" width="130" height="30" as="geometry" />
        </mxCell>
        <mxCell id="e7j7X2xoP23D985uZrlY-51" value="" style="edgeStyle=entityRelationEdgeStyle;startArrow=none;endArrow=none;segment=10;curved=1;rounded=0;" parent="e7j7X2xoP23D985uZrlY-1" source="e7j7X2xoP23D985uZrlY-6" target="e7j7X2xoP23D985uZrlY-52" edge="1" visible="0">
          <mxGeometry relative="1" as="geometry">
            <mxPoint x="440" y="545" as="sourcePoint" />
          </mxGeometry>
        </mxCell>
        <mxCell id="e7j7X2xoP23D985uZrlY-52" value="CyclicBarrier" style="whiteSpace=wrap;html=1;rounded=1;arcSize=50;align=center;verticalAlign=middle;strokeWidth=1;autosize=1;spacing=4;treeFolding=1;treeMoving=1;newEdgeStyle={&quot;edgeStyle&quot;:&quot;entityRelationEdgeStyle&quot;,&quot;startArrow&quot;:&quot;none&quot;,&quot;endArrow&quot;:&quot;none&quot;,&quot;segment&quot;:10,&quot;curved&quot;:1};fillColor=#dae8fc;strokeColor=#6c8ebf;" parent="e7j7X2xoP23D985uZrlY-1" vertex="1" collapsed="1" visible="0">
          <mxGeometry x="475" y="560" width="110" height="30" as="geometry" />
        </mxCell>
        <mxCell id="e7j7X2xoP23D985uZrlY-53" value="countDown()" style="whiteSpace=wrap;html=1;shape=partialRectangle;top=0;left=0;bottom=1;right=0;points=[[0,1],[1,1]];fillColor=none;align=center;verticalAlign=bottom;routingCenterY=0.5;snapToPoint=1;recursiveResize=0;autosize=1;treeFolding=1;treeMoving=1;newEdgeStyle={&quot;edgeStyle&quot;:&quot;entityRelationEdgeStyle&quot;,&quot;startArrow&quot;:&quot;none&quot;,&quot;endArrow&quot;:&quot;none&quot;,&quot;segment&quot;:10,&quot;curved&quot;:1};" parent="e7j7X2xoP23D985uZrlY-1" vertex="1" visible="0">
          <mxGeometry x="630" y="440" width="100" height="20" as="geometry" />
        </mxCell>
        <mxCell id="e7j7X2xoP23D985uZrlY-54" value="" style="edgeStyle=entityRelationEdgeStyle;startArrow=none;endArrow=none;segment=10;curved=1;exitX=1;exitY=0.5;exitDx=0;exitDy=0;" parent="e7j7X2xoP23D985uZrlY-1" source="e7j7X2xoP23D985uZrlY-50" target="e7j7X2xoP23D985uZrlY-53" edge="1" visible="0">
          <mxGeometry relative="1" as="geometry">
            <mxPoint x="620" y="920" as="sourcePoint" />
          </mxGeometry>
        </mxCell>
        <mxCell id="e7j7X2xoP23D985uZrlY-55" value="" style="edgeStyle=entityRelationEdgeStyle;startArrow=none;endArrow=none;segment=10;curved=1;exitX=1;exitY=0.5;exitDx=0;exitDy=0;" parent="e7j7X2xoP23D985uZrlY-1" source="e7j7X2xoP23D985uZrlY-50" target="e7j7X2xoP23D985uZrlY-56" edge="1" visible="0">
          <mxGeometry relative="1" as="geometry">
            <mxPoint x="665" y="910" as="sourcePoint" />
          </mxGeometry>
        </mxCell>
        <mxCell id="e7j7X2xoP23D985uZrlY-56" value="await()" style="whiteSpace=wrap;html=1;shape=partialRectangle;top=0;left=0;bottom=1;right=0;points=[[0,1],[1,1]];fillColor=none;align=center;verticalAlign=bottom;routingCenterY=0.5;snapToPoint=1;recursiveResize=0;autosize=1;treeFolding=1;treeMoving=1;newEdgeStyle={&quot;edgeStyle&quot;:&quot;entityRelationEdgeStyle&quot;,&quot;startArrow&quot;:&quot;none&quot;,&quot;endArrow&quot;:&quot;none&quot;,&quot;segment&quot;:10,&quot;curved&quot;:1};" parent="e7j7X2xoP23D985uZrlY-1" vertex="1" visible="0">
          <mxGeometry x="645" y="500" width="70" height="20" as="geometry" />
        </mxCell>
        <mxCell id="e7j7X2xoP23D985uZrlY-57" value="" style="edgeStyle=entityRelationEdgeStyle;startArrow=none;endArrow=none;segment=10;curved=1;exitX=1;exitY=0.5;exitDx=0;exitDy=0;" parent="e7j7X2xoP23D985uZrlY-1" source="e7j7X2xoP23D985uZrlY-52" target="e7j7X2xoP23D985uZrlY-58" edge="1" visible="0">
          <mxGeometry relative="1" as="geometry">
            <mxPoint x="625" y="975" as="sourcePoint" />
          </mxGeometry>
        </mxCell>
        <mxCell id="e7j7X2xoP23D985uZrlY-58" value="await()" style="whiteSpace=wrap;html=1;shape=partialRectangle;top=0;left=0;bottom=1;right=0;points=[[0,1],[1,1]];fillColor=none;align=center;verticalAlign=bottom;routingCenterY=0.5;snapToPoint=1;recursiveResize=0;autosize=1;treeFolding=1;treeMoving=1;newEdgeStyle={&quot;edgeStyle&quot;:&quot;entityRelationEdgeStyle&quot;,&quot;startArrow&quot;:&quot;none&quot;,&quot;endArrow&quot;:&quot;none&quot;,&quot;segment&quot;:10,&quot;curved&quot;:1};" parent="e7j7X2xoP23D985uZrlY-1" vertex="1" visible="0">
          <mxGeometry x="620" y="560" width="70" height="20" as="geometry" />
        </mxCell>
        <mxCell id="e7j7X2xoP23D985uZrlY-59" value="设计模式" style="whiteSpace=wrap;html=1;rounded=1;arcSize=50;align=center;verticalAlign=middle;strokeWidth=1;autosize=1;spacing=4;treeFolding=1;treeMoving=1;newEdgeStyle={&quot;edgeStyle&quot;:&quot;entityRelationEdgeStyle&quot;,&quot;startArrow&quot;:&quot;none&quot;,&quot;endArrow&quot;:&quot;none&quot;,&quot;segment&quot;:10,&quot;curved&quot;:1};fillColor=#dae8fc;strokeColor=#6c8ebf;" parent="e7j7X2xoP23D985uZrlY-1" vertex="1">
          <mxGeometry x="10" y="415" width="90" height="30" as="geometry" />
        </mxCell>
        <mxCell id="e7j7X2xoP23D985uZrlY-60" value="" style="edgeStyle=entityRelationEdgeStyle;startArrow=none;endArrow=none;segment=10;curved=1;rounded=0;" parent="e7j7X2xoP23D985uZrlY-1" source="e7j7X2xoP23D985uZrlY-3" target="e7j7X2xoP23D985uZrlY-59" edge="1">
          <mxGeometry relative="1" as="geometry">
            <mxPoint x="500" y="700" as="sourcePoint" />
          </mxGeometry>
        </mxCell>
        <mxCell id="e7j7X2xoP23D985uZrlY-61" style="edgeStyle=orthogonalEdgeStyle;rounded=0;orthogonalLoop=1;jettySize=auto;html=1;exitX=0.5;exitY=1;exitDx=0;exitDy=0;" parent="e7j7X2xoP23D985uZrlY-1" source="e7j7X2xoP23D985uZrlY-12" target="e7j7X2xoP23D985uZrlY-12" edge="1" visible="0">
          <mxGeometry relative="1" as="geometry" />
        </mxCell>
        <mxCell id="e7j7X2xoP23D985uZrlY-62" value="" style="edgeStyle=entityRelationEdgeStyle;startArrow=none;endArrow=none;segment=10;curved=1;rounded=0;" parent="e7j7X2xoP23D985uZrlY-1" source="e7j7X2xoP23D985uZrlY-6" target="e7j7X2xoP23D985uZrlY-63" edge="1" visible="0">
          <mxGeometry relative="1" as="geometry">
            <mxPoint x="550" y="75" as="sourcePoint" />
          </mxGeometry>
        </mxCell>
        <mxCell id="e7j7X2xoP23D985uZrlY-63" value="原子类" style="whiteSpace=wrap;html=1;rounded=1;arcSize=50;align=center;verticalAlign=middle;strokeWidth=1;autosize=1;spacing=4;treeFolding=1;treeMoving=1;newEdgeStyle={&quot;edgeStyle&quot;:&quot;entityRelationEdgeStyle&quot;,&quot;startArrow&quot;:&quot;none&quot;,&quot;endArrow&quot;:&quot;none&quot;,&quot;segment&quot;:10,&quot;curved&quot;:1};fillColor=#dae8fc;strokeColor=#6c8ebf;" parent="e7j7X2xoP23D985uZrlY-1" vertex="1" collapsed="1" visible="0">
          <mxGeometry x="490" y="730" width="80" height="30" as="geometry" />
        </mxCell>
        <mxCell id="e7j7X2xoP23D985uZrlY-64" value="" style="edgeStyle=entityRelationEdgeStyle;startArrow=none;endArrow=none;segment=10;curved=1;rounded=0;" parent="e7j7X2xoP23D985uZrlY-1" source="e7j7X2xoP23D985uZrlY-6" target="e7j7X2xoP23D985uZrlY-65" edge="1" visible="0">
          <mxGeometry relative="1" as="geometry">
            <mxPoint x="550" y="75" as="sourcePoint" />
          </mxGeometry>
        </mxCell>
        <mxCell id="e7j7X2xoP23D985uZrlY-65" value="线程池" style="whiteSpace=wrap;html=1;rounded=1;arcSize=50;align=center;verticalAlign=middle;strokeWidth=1;autosize=1;spacing=4;treeFolding=1;treeMoving=1;newEdgeStyle={&quot;edgeStyle&quot;:&quot;entityRelationEdgeStyle&quot;,&quot;startArrow&quot;:&quot;none&quot;,&quot;endArrow&quot;:&quot;none&quot;,&quot;segment&quot;:10,&quot;curved&quot;:1};fillColor=#dae8fc;strokeColor=#6c8ebf;" parent="e7j7X2xoP23D985uZrlY-1" vertex="1" visible="0">
          <mxGeometry x="490" y="830" width="80" height="30" as="geometry" />
        </mxCell>
        <mxCell id="e7j7X2xoP23D985uZrlY-66" value="" style="edgeStyle=entityRelationEdgeStyle;startArrow=none;endArrow=none;segment=10;curved=1;rounded=0;" parent="e7j7X2xoP23D985uZrlY-1" source="e7j7X2xoP23D985uZrlY-65" target="e7j7X2xoP23D985uZrlY-67" edge="1" visible="0">
          <mxGeometry relative="1" as="geometry">
            <mxPoint x="550" y="75" as="sourcePoint" />
          </mxGeometry>
        </mxCell>
        <mxCell id="e7j7X2xoP23D985uZrlY-67" value="ThreadPoolExecutor" style="whiteSpace=wrap;html=1;rounded=1;arcSize=50;align=center;verticalAlign=middle;strokeWidth=1;autosize=1;spacing=4;treeFolding=1;treeMoving=1;newEdgeStyle={&quot;edgeStyle&quot;:&quot;entityRelationEdgeStyle&quot;,&quot;startArrow&quot;:&quot;none&quot;,&quot;endArrow&quot;:&quot;none&quot;,&quot;segment&quot;:10,&quot;curved&quot;:1};fillColor=#dae8fc;strokeColor=#6c8ebf;" parent="e7j7X2xoP23D985uZrlY-1" vertex="1" collapsed="1" visible="0">
          <mxGeometry x="655.5" y="770" width="155" height="30" as="geometry" />
        </mxCell>
        <mxCell id="e7j7X2xoP23D985uZrlY-68" value="" style="edgeStyle=entityRelationEdgeStyle;startArrow=none;endArrow=none;segment=10;curved=1;rounded=0;" parent="e7j7X2xoP23D985uZrlY-1" source="e7j7X2xoP23D985uZrlY-6" target="e7j7X2xoP23D985uZrlY-69" edge="1" visible="0">
          <mxGeometry relative="1" as="geometry">
            <mxPoint x="550" y="75" as="sourcePoint" />
          </mxGeometry>
        </mxCell>
        <mxCell id="e7j7X2xoP23D985uZrlY-69" value="并发容器" style="whiteSpace=wrap;html=1;rounded=1;arcSize=50;align=center;verticalAlign=middle;strokeWidth=1;autosize=1;spacing=4;treeFolding=1;treeMoving=1;newEdgeStyle={&quot;edgeStyle&quot;:&quot;entityRelationEdgeStyle&quot;,&quot;startArrow&quot;:&quot;none&quot;,&quot;endArrow&quot;:&quot;none&quot;,&quot;segment&quot;:10,&quot;curved&quot;:1};fillColor=#dae8fc;strokeColor=#6c8ebf;" parent="e7j7X2xoP23D985uZrlY-1" vertex="1" collapsed="1" visible="0">
          <mxGeometry x="485" y="640" width="90" height="30" as="geometry" />
        </mxCell>
        <mxCell id="e7j7X2xoP23D985uZrlY-70" value="" style="edgeStyle=entityRelationEdgeStyle;startArrow=none;endArrow=none;segment=10;curved=1;rounded=0;" parent="e7j7X2xoP23D985uZrlY-1" source="e7j7X2xoP23D985uZrlY-65" target="e7j7X2xoP23D985uZrlY-71" edge="1" visible="0">
          <mxGeometry relative="1" as="geometry">
            <mxPoint x="750" y="385" as="sourcePoint" />
          </mxGeometry>
        </mxCell>
        <mxCell id="e7j7X2xoP23D985uZrlY-71" value="Executor" style="whiteSpace=wrap;html=1;rounded=1;arcSize=50;align=center;verticalAlign=middle;strokeWidth=1;autosize=1;spacing=4;treeFolding=1;treeMoving=1;newEdgeStyle={&quot;edgeStyle&quot;:&quot;entityRelationEdgeStyle&quot;,&quot;startArrow&quot;:&quot;none&quot;,&quot;endArrow&quot;:&quot;none&quot;,&quot;segment&quot;:10,&quot;curved&quot;:1};fillColor=#dae8fc;strokeColor=#6c8ebf;" parent="e7j7X2xoP23D985uZrlY-1" vertex="1" collapsed="1" visible="0">
          <mxGeometry x="688" y="690" width="90" height="30" as="geometry" />
        </mxCell>
        <mxCell id="e7j7X2xoP23D985uZrlY-72" value="" style="edgeStyle=entityRelationEdgeStyle;startArrow=none;endArrow=none;segment=10;curved=1;rounded=0;" parent="e7j7X2xoP23D985uZrlY-1" source="e7j7X2xoP23D985uZrlY-65" target="e7j7X2xoP23D985uZrlY-73" edge="1" visible="0">
          <mxGeometry relative="1" as="geometry">
            <mxPoint x="760" y="395" as="sourcePoint" />
          </mxGeometry>
        </mxCell>
        <mxCell id="e7j7X2xoP23D985uZrlY-73" value="Future" style="whiteSpace=wrap;html=1;rounded=1;arcSize=50;align=center;verticalAlign=middle;strokeWidth=1;autosize=1;spacing=4;treeFolding=1;treeMoving=1;newEdgeStyle={&quot;edgeStyle&quot;:&quot;entityRelationEdgeStyle&quot;,&quot;startArrow&quot;:&quot;none&quot;,&quot;endArrow&quot;:&quot;none&quot;,&quot;segment&quot;:10,&quot;curved&quot;:1};fillColor=#dae8fc;strokeColor=#6c8ebf;" parent="e7j7X2xoP23D985uZrlY-1" vertex="1" collapsed="1" visible="0">
          <mxGeometry x="693" y="840" width="80" height="30" as="geometry" />
        </mxCell>
        <mxCell id="e7j7X2xoP23D985uZrlY-74" value="" style="edgeStyle=entityRelationEdgeStyle;startArrow=none;endArrow=none;segment=10;curved=1;rounded=0;" parent="e7j7X2xoP23D985uZrlY-1" source="e7j7X2xoP23D985uZrlY-65" target="e7j7X2xoP23D985uZrlY-75" edge="1" visible="0">
          <mxGeometry relative="1" as="geometry">
            <mxPoint x="760" y="395" as="sourcePoint" />
          </mxGeometry>
        </mxCell>
        <mxCell id="e7j7X2xoP23D985uZrlY-75" value="FutureTask" style="whiteSpace=wrap;html=1;rounded=1;arcSize=50;align=center;verticalAlign=middle;strokeWidth=1;autosize=1;spacing=4;treeFolding=1;treeMoving=1;newEdgeStyle={&quot;edgeStyle&quot;:&quot;entityRelationEdgeStyle&quot;,&quot;startArrow&quot;:&quot;none&quot;,&quot;endArrow&quot;:&quot;none&quot;,&quot;segment&quot;:10,&quot;curved&quot;:1};fillColor=#dae8fc;strokeColor=#6c8ebf;" parent="e7j7X2xoP23D985uZrlY-1" vertex="1" collapsed="1" visible="0">
          <mxGeometry x="683" y="920" width="100" height="30" as="geometry" />
        </mxCell>
        <mxCell id="e7j7X2xoP23D985uZrlY-76" value="" style="edgeStyle=entityRelationEdgeStyle;startArrow=none;endArrow=none;segment=10;curved=1;rounded=0;" parent="e7j7X2xoP23D985uZrlY-1" source="e7j7X2xoP23D985uZrlY-65" target="e7j7X2xoP23D985uZrlY-77" edge="1" visible="0">
          <mxGeometry relative="1" as="geometry">
            <mxPoint x="760" y="395" as="sourcePoint" />
          </mxGeometry>
        </mxCell>
        <mxCell id="e7j7X2xoP23D985uZrlY-77" value="CompletableFuture" style="whiteSpace=wrap;html=1;rounded=1;arcSize=50;align=center;verticalAlign=middle;strokeWidth=1;autosize=1;spacing=4;treeFolding=1;treeMoving=1;newEdgeStyle={&quot;edgeStyle&quot;:&quot;entityRelationEdgeStyle&quot;,&quot;startArrow&quot;:&quot;none&quot;,&quot;endArrow&quot;:&quot;none&quot;,&quot;segment&quot;:10,&quot;curved&quot;:1};fillColor=#dae8fc;strokeColor=#6c8ebf;" parent="e7j7X2xoP23D985uZrlY-1" vertex="1" collapsed="1" visible="0">
          <mxGeometry x="663" y="990" width="140" height="30" as="geometry" />
        </mxCell>
        <mxCell id="e7j7X2xoP23D985uZrlY-78" value="" style="edgeStyle=entityRelationEdgeStyle;startArrow=none;endArrow=none;segment=10;curved=1;rounded=0;" parent="e7j7X2xoP23D985uZrlY-1" source="e7j7X2xoP23D985uZrlY-65" target="e7j7X2xoP23D985uZrlY-79" edge="1" visible="0">
          <mxGeometry relative="1" as="geometry">
            <mxPoint x="800" y="375" as="sourcePoint" />
          </mxGeometry>
        </mxCell>
        <mxCell id="e7j7X2xoP23D985uZrlY-79" value="CompletionService" style="whiteSpace=wrap;html=1;rounded=1;arcSize=50;align=center;verticalAlign=middle;strokeWidth=1;autosize=1;spacing=4;treeFolding=1;treeMoving=1;newEdgeStyle={&quot;edgeStyle&quot;:&quot;entityRelationEdgeStyle&quot;,&quot;startArrow&quot;:&quot;none&quot;,&quot;endArrow&quot;:&quot;none&quot;,&quot;segment&quot;:10,&quot;curved&quot;:1};fillColor=#dae8fc;strokeColor=#6c8ebf;" parent="e7j7X2xoP23D985uZrlY-1" vertex="1" collapsed="1" visible="0">
          <mxGeometry x="663" y="1050" width="140" height="30" as="geometry" />
        </mxCell>
        <mxCell id="e7j7X2xoP23D985uZrlY-80" value="" style="edgeStyle=entityRelationEdgeStyle;startArrow=none;endArrow=none;segment=10;curved=1;rounded=0;" parent="e7j7X2xoP23D985uZrlY-1" source="e7j7X2xoP23D985uZrlY-65" target="e7j7X2xoP23D985uZrlY-81" edge="1" visible="0">
          <mxGeometry relative="1" as="geometry">
            <mxPoint x="800" y="375" as="sourcePoint" />
          </mxGeometry>
        </mxCell>
        <mxCell id="e7j7X2xoP23D985uZrlY-81" value="ForkJoinPool" style="whiteSpace=wrap;html=1;rounded=1;arcSize=50;align=center;verticalAlign=middle;strokeWidth=1;autosize=1;spacing=4;treeFolding=1;treeMoving=1;newEdgeStyle={&quot;edgeStyle&quot;:&quot;entityRelationEdgeStyle&quot;,&quot;startArrow&quot;:&quot;none&quot;,&quot;endArrow&quot;:&quot;none&quot;,&quot;segment&quot;:10,&quot;curved&quot;:1};fillColor=#dae8fc;strokeColor=#6c8ebf;" parent="e7j7X2xoP23D985uZrlY-1" vertex="1" collapsed="1" visible="0">
          <mxGeometry x="678" y="1110" width="110" height="30" as="geometry" />
        </mxCell>
        <mxCell id="e7j7X2xoP23D985uZrlY-82" value="" style="edgeStyle=entityRelationEdgeStyle;startArrow=none;endArrow=none;segment=10;curved=1;rounded=0;" parent="e7j7X2xoP23D985uZrlY-1" source="e7j7X2xoP23D985uZrlY-65" target="e7j7X2xoP23D985uZrlY-83" edge="1" visible="0">
          <mxGeometry relative="1" as="geometry">
            <mxPoint x="800" y="375" as="sourcePoint" />
          </mxGeometry>
        </mxCell>
        <mxCell id="e7j7X2xoP23D985uZrlY-83" value="ForkJoinTask" style="whiteSpace=wrap;html=1;rounded=1;arcSize=50;align=center;verticalAlign=middle;strokeWidth=1;autosize=1;spacing=4;treeFolding=1;treeMoving=1;newEdgeStyle={&quot;edgeStyle&quot;:&quot;entityRelationEdgeStyle&quot;,&quot;startArrow&quot;:&quot;none&quot;,&quot;endArrow&quot;:&quot;none&quot;,&quot;segment&quot;:10,&quot;curved&quot;:1};fillColor=#dae8fc;strokeColor=#6c8ebf;" parent="e7j7X2xoP23D985uZrlY-1" vertex="1" collapsed="1" visible="0">
          <mxGeometry x="683" y="1170" width="110" height="30" as="geometry" />
        </mxCell>
        <mxCell id="e7j7X2xoP23D985uZrlY-84" value="" style="edgeStyle=entityRelationEdgeStyle;startArrow=none;endArrow=none;segment=10;curved=1;rounded=0;" parent="e7j7X2xoP23D985uZrlY-1" source="e7j7X2xoP23D985uZrlY-83" target="e7j7X2xoP23D985uZrlY-85" edge="1" visible="0">
          <mxGeometry relative="1" as="geometry">
            <mxPoint x="800" y="375" as="sourcePoint" />
          </mxGeometry>
        </mxCell>
        <mxCell id="e7j7X2xoP23D985uZrlY-85" value="RecursiveTask" style="whiteSpace=wrap;html=1;rounded=1;arcSize=50;align=center;verticalAlign=middle;strokeWidth=1;autosize=1;spacing=4;treeFolding=1;treeMoving=1;newEdgeStyle={&quot;edgeStyle&quot;:&quot;entityRelationEdgeStyle&quot;,&quot;startArrow&quot;:&quot;none&quot;,&quot;endArrow&quot;:&quot;none&quot;,&quot;segment&quot;:10,&quot;curved&quot;:1};fillColor=#dae8fc;strokeColor=#6c8ebf;" parent="e7j7X2xoP23D985uZrlY-1" vertex="1" collapsed="1" visible="0">
          <mxGeometry x="828" y="1140" width="120" height="30" as="geometry" />
        </mxCell>
        <mxCell id="e7j7X2xoP23D985uZrlY-86" value="" style="edgeStyle=entityRelationEdgeStyle;startArrow=none;endArrow=none;segment=10;curved=1;rounded=0;" parent="e7j7X2xoP23D985uZrlY-1" source="e7j7X2xoP23D985uZrlY-83" target="e7j7X2xoP23D985uZrlY-87" edge="1" visible="0">
          <mxGeometry relative="1" as="geometry">
            <mxPoint x="1013" y="645" as="sourcePoint" />
          </mxGeometry>
        </mxCell>
        <mxCell id="e7j7X2xoP23D985uZrlY-87" value="RecursiveAction" style="whiteSpace=wrap;html=1;rounded=1;arcSize=50;align=center;verticalAlign=middle;strokeWidth=1;autosize=1;spacing=4;treeFolding=1;treeMoving=1;newEdgeStyle={&quot;edgeStyle&quot;:&quot;entityRelationEdgeStyle&quot;,&quot;startArrow&quot;:&quot;none&quot;,&quot;endArrow&quot;:&quot;none&quot;,&quot;segment&quot;:10,&quot;curved&quot;:1};fillColor=#dae8fc;strokeColor=#6c8ebf;" parent="e7j7X2xoP23D985uZrlY-1" vertex="1" collapsed="1" visible="0">
          <mxGeometry x="823" y="1210" width="130" height="30" as="geometry" />
        </mxCell>
        <mxCell id="e7j7X2xoP23D985uZrlY-88" value="Future&amp;lt;V&amp;gt; submit(Callable&amp;lt;V&amp;gt; task);" style="whiteSpace=wrap;html=1;shape=partialRectangle;top=0;left=0;bottom=1;right=0;points=[[0,1],[1,1]];fillColor=none;align=center;verticalAlign=bottom;routingCenterY=0.5;snapToPoint=1;recursiveResize=0;autosize=1;treeFolding=1;treeMoving=1;newEdgeStyle={&quot;edgeStyle&quot;:&quot;entityRelationEdgeStyle&quot;,&quot;startArrow&quot;:&quot;none&quot;,&quot;endArrow&quot;:&quot;none&quot;,&quot;segment&quot;:10,&quot;curved&quot;:1};" parent="e7j7X2xoP23D985uZrlY-1" vertex="1" visible="0">
          <mxGeometry x="857" y="950" width="230" height="20" as="geometry" />
        </mxCell>
        <mxCell id="e7j7X2xoP23D985uZrlY-89" value="" style="edgeStyle=entityRelationEdgeStyle;startArrow=none;endArrow=none;segment=10;curved=1;rounded=0;exitX=1;exitY=0.5;exitDx=0;exitDy=0;" parent="e7j7X2xoP23D985uZrlY-1" source="e7j7X2xoP23D985uZrlY-79" target="e7j7X2xoP23D985uZrlY-88" edge="1" visible="0">
          <mxGeometry relative="1" as="geometry">
            <mxPoint x="833" y="1070" as="sourcePoint" />
          </mxGeometry>
        </mxCell>
        <mxCell id="e7j7X2xoP23D985uZrlY-90" value="" style="edgeStyle=entityRelationEdgeStyle;startArrow=none;endArrow=none;segment=10;curved=1;rounded=0;exitX=1;exitY=0.5;exitDx=0;exitDy=0;" parent="e7j7X2xoP23D985uZrlY-1" source="e7j7X2xoP23D985uZrlY-79" target="e7j7X2xoP23D985uZrlY-91" edge="1" visible="0">
          <mxGeometry relative="1" as="geometry">
            <mxPoint x="1003" y="175" as="sourcePoint" />
          </mxGeometry>
        </mxCell>
        <mxCell id="e7j7X2xoP23D985uZrlY-91" value="Future&amp;lt;V&amp;gt; submit(Runnable task, V result);" style="whiteSpace=wrap;html=1;shape=partialRectangle;top=0;left=0;bottom=1;right=0;points=[[0,1],[1,1]];fillColor=none;align=center;verticalAlign=bottom;routingCenterY=0.5;snapToPoint=1;recursiveResize=0;autosize=1;treeFolding=1;treeMoving=1;newEdgeStyle={&quot;edgeStyle&quot;:&quot;entityRelationEdgeStyle&quot;,&quot;startArrow&quot;:&quot;none&quot;,&quot;endArrow&quot;:&quot;none&quot;,&quot;segment&quot;:10,&quot;curved&quot;:1};" parent="e7j7X2xoP23D985uZrlY-1" vertex="1" visible="0">
          <mxGeometry x="842" y="990" width="260" height="20" as="geometry" />
        </mxCell>
        <mxCell id="e7j7X2xoP23D985uZrlY-92" value="" style="edgeStyle=entityRelationEdgeStyle;startArrow=none;endArrow=none;segment=10;curved=1;rounded=0;exitX=1;exitY=0.5;exitDx=0;exitDy=0;" parent="e7j7X2xoP23D985uZrlY-1" source="e7j7X2xoP23D985uZrlY-79" target="e7j7X2xoP23D985uZrlY-93" edge="1" visible="0">
          <mxGeometry relative="1" as="geometry">
            <mxPoint x="1003" y="175" as="sourcePoint" />
          </mxGeometry>
        </mxCell>
        <mxCell id="e7j7X2xoP23D985uZrlY-93" value="Future&amp;lt;V&amp;gt; take()" style="whiteSpace=wrap;html=1;shape=partialRectangle;top=0;left=0;bottom=1;right=0;points=[[0,1],[1,1]];fillColor=none;align=center;verticalAlign=bottom;routingCenterY=0.5;snapToPoint=1;recursiveResize=0;autosize=1;treeFolding=1;treeMoving=1;newEdgeStyle={&quot;edgeStyle&quot;:&quot;entityRelationEdgeStyle&quot;,&quot;startArrow&quot;:&quot;none&quot;,&quot;endArrow&quot;:&quot;none&quot;,&quot;segment&quot;:10,&quot;curved&quot;:1};" parent="e7j7X2xoP23D985uZrlY-1" vertex="1" visible="0">
          <mxGeometry x="912" y="1030" width="120" height="20" as="geometry" />
        </mxCell>
        <mxCell id="e7j7X2xoP23D985uZrlY-94" value="" style="edgeStyle=entityRelationEdgeStyle;startArrow=none;endArrow=none;segment=10;curved=1;rounded=0;exitX=1;exitY=0.5;exitDx=0;exitDy=0;" parent="e7j7X2xoP23D985uZrlY-1" source="e7j7X2xoP23D985uZrlY-79" target="e7j7X2xoP23D985uZrlY-95" edge="1" visible="0">
          <mxGeometry relative="1" as="geometry">
            <mxPoint x="1003" y="175" as="sourcePoint" />
          </mxGeometry>
        </mxCell>
        <mxCell id="e7j7X2xoP23D985uZrlY-95" value="Future&amp;lt;V&amp;gt; poll()" style="whiteSpace=wrap;html=1;shape=partialRectangle;top=0;left=0;bottom=1;right=0;points=[[0,1],[1,1]];fillColor=none;align=center;verticalAlign=bottom;routingCenterY=0.5;snapToPoint=1;recursiveResize=0;autosize=1;treeFolding=1;treeMoving=1;newEdgeStyle={&quot;edgeStyle&quot;:&quot;entityRelationEdgeStyle&quot;,&quot;startArrow&quot;:&quot;none&quot;,&quot;endArrow&quot;:&quot;none&quot;,&quot;segment&quot;:10,&quot;curved&quot;:1};" parent="e7j7X2xoP23D985uZrlY-1" vertex="1" visible="0">
          <mxGeometry x="912" y="1070" width="120" height="20" as="geometry" />
        </mxCell>
        <mxCell id="e7j7X2xoP23D985uZrlY-96" value="" style="edgeStyle=entityRelationEdgeStyle;startArrow=none;endArrow=none;segment=10;curved=1;rounded=0;exitX=1;exitY=0.5;exitDx=0;exitDy=0;" parent="e7j7X2xoP23D985uZrlY-1" source="e7j7X2xoP23D985uZrlY-79" target="e7j7X2xoP23D985uZrlY-97" edge="1" visible="0">
          <mxGeometry relative="1" as="geometry">
            <mxPoint x="1003" y="175" as="sourcePoint" />
          </mxGeometry>
        </mxCell>
        <mxCell id="e7j7X2xoP23D985uZrlY-97" value="Future&amp;lt;V&amp;gt; poll(long timeout, TimeUnit unit)" style="whiteSpace=wrap;html=1;shape=partialRectangle;top=0;left=0;bottom=1;right=0;points=[[0,1],[1,1]];fillColor=none;align=center;verticalAlign=bottom;routingCenterY=0.5;snapToPoint=1;recursiveResize=0;autosize=1;treeFolding=1;treeMoving=1;newEdgeStyle={&quot;edgeStyle&quot;:&quot;entityRelationEdgeStyle&quot;,&quot;startArrow&quot;:&quot;none&quot;,&quot;endArrow&quot;:&quot;none&quot;,&quot;segment&quot;:10,&quot;curved&quot;:1};" parent="e7j7X2xoP23D985uZrlY-1" vertex="1" visible="0">
          <mxGeometry x="842" y="1110" width="260" height="20" as="geometry" />
        </mxCell>
        <mxCell id="e7j7X2xoP23D985uZrlY-98" value="" style="edgeStyle=entityRelationEdgeStyle;startArrow=none;endArrow=none;segment=10;curved=1;rounded=0;" parent="e7j7X2xoP23D985uZrlY-1" source="e7j7X2xoP23D985uZrlY-4" target="e7j7X2xoP23D985uZrlY-99" edge="1" visible="0">
          <mxGeometry relative="1" as="geometry">
            <mxPoint x="590" y="-635" as="sourcePoint" />
          </mxGeometry>
        </mxCell>
        <mxCell id="e7j7X2xoP23D985uZrlY-99" value="可见性" style="whiteSpace=wrap;html=1;rounded=1;arcSize=50;align=center;verticalAlign=middle;strokeWidth=1;autosize=1;spacing=4;treeFolding=1;treeMoving=1;newEdgeStyle={&quot;edgeStyle&quot;:&quot;entityRelationEdgeStyle&quot;,&quot;startArrow&quot;:&quot;none&quot;,&quot;endArrow&quot;:&quot;none&quot;,&quot;segment&quot;:10,&quot;curved&quot;:1};fillColor=#dae8fc;strokeColor=#6c8ebf;" parent="e7j7X2xoP23D985uZrlY-1" vertex="1" visible="0">
          <mxGeometry x="450" y="180" width="80" height="30" as="geometry" />
        </mxCell>
        <mxCell id="e7j7X2xoP23D985uZrlY-100" value="" style="edgeStyle=entityRelationEdgeStyle;startArrow=none;endArrow=none;segment=10;curved=1;rounded=0;" parent="e7j7X2xoP23D985uZrlY-1" source="e7j7X2xoP23D985uZrlY-4" target="e7j7X2xoP23D985uZrlY-101" edge="1" visible="0">
          <mxGeometry relative="1" as="geometry">
            <mxPoint x="590" y="-635" as="sourcePoint" />
          </mxGeometry>
        </mxCell>
        <mxCell id="e7j7X2xoP23D985uZrlY-101" value="有序性" style="whiteSpace=wrap;html=1;rounded=1;arcSize=50;align=center;verticalAlign=middle;strokeWidth=1;autosize=1;spacing=4;treeFolding=1;treeMoving=1;newEdgeStyle={&quot;edgeStyle&quot;:&quot;entityRelationEdgeStyle&quot;,&quot;startArrow&quot;:&quot;none&quot;,&quot;endArrow&quot;:&quot;none&quot;,&quot;segment&quot;:10,&quot;curved&quot;:1};fillColor=#dae8fc;strokeColor=#6c8ebf;" parent="e7j7X2xoP23D985uZrlY-1" vertex="1" collapsed="1" visible="0">
          <mxGeometry x="450" y="240" width="80" height="30" as="geometry" />
        </mxCell>
        <mxCell id="e7j7X2xoP23D985uZrlY-102" value="&lt;ul style=&quot;font-size: 13px&quot;&gt;&lt;li&gt;缓存导致的可见性&lt;/li&gt;&lt;li&gt;线程切换导致的原子性&lt;/li&gt;&lt;li&gt;编译优化带来的有序性&lt;/li&gt;&lt;/ul&gt;" style="text;strokeColor=none;fillColor=none;html=1;whiteSpace=wrap;verticalAlign=middle;overflow=hidden;" parent="e7j7X2xoP23D985uZrlY-1" vertex="1">
          <mxGeometry x="500" y="100" width="190" height="80" as="geometry" />
        </mxCell>
        <mxCell id="e7j7X2xoP23D985uZrlY-103" value="" style="edgeStyle=entityRelationEdgeStyle;startArrow=none;endArrow=none;segment=10;curved=1;rounded=0;" parent="e7j7X2xoP23D985uZrlY-1" source="e7j7X2xoP23D985uZrlY-4" target="e7j7X2xoP23D985uZrlY-104" edge="1" visible="0">
          <mxGeometry relative="1" as="geometry">
            <mxPoint x="590" y="-635" as="sourcePoint" />
          </mxGeometry>
        </mxCell>
        <mxCell id="e7j7X2xoP23D985uZrlY-104" value="java内存模型" style="whiteSpace=wrap;html=1;rounded=1;arcSize=50;align=center;verticalAlign=middle;strokeWidth=1;autosize=1;spacing=4;treeFolding=1;treeMoving=1;newEdgeStyle={&quot;edgeStyle&quot;:&quot;entityRelationEdgeStyle&quot;,&quot;startArrow&quot;:&quot;none&quot;,&quot;endArrow&quot;:&quot;none&quot;,&quot;segment&quot;:10,&quot;curved&quot;:1};fillColor=#dae8fc;strokeColor=#6c8ebf;" parent="e7j7X2xoP23D985uZrlY-1" vertex="1" visible="0" collapsed="1">
          <mxGeometry x="450" y="370" width="110" height="30" as="geometry" />
        </mxCell>
        <mxCell id="e7j7X2xoP23D985uZrlY-105" value="" style="edgeStyle=entityRelationEdgeStyle;startArrow=none;endArrow=none;segment=10;curved=1;rounded=0;" parent="e7j7X2xoP23D985uZrlY-1" source="e7j7X2xoP23D985uZrlY-104" target="e7j7X2xoP23D985uZrlY-106" edge="1" visible="0">
          <mxGeometry relative="1" as="geometry">
            <mxPoint x="605" y="-635" as="sourcePoint" />
          </mxGeometry>
        </mxCell>
        <mxCell id="e7j7X2xoP23D985uZrlY-106" value="Happens-Before规则" style="whiteSpace=wrap;html=1;rounded=1;arcSize=50;align=center;verticalAlign=middle;strokeWidth=1;autosize=1;spacing=4;treeFolding=1;treeMoving=1;newEdgeStyle={&quot;edgeStyle&quot;:&quot;entityRelationEdgeStyle&quot;,&quot;startArrow&quot;:&quot;none&quot;,&quot;endArrow&quot;:&quot;none&quot;,&quot;segment&quot;:10,&quot;curved&quot;:1};fillColor=#dae8fc;strokeColor=#6c8ebf;" parent="e7j7X2xoP23D985uZrlY-1" vertex="1" collapsed="1" visible="0">
          <mxGeometry x="580" y="370" width="150" height="30" as="geometry" />
        </mxCell>
        <mxCell id="e7j7X2xoP23D985uZrlY-107" value="" style="edgeStyle=entityRelationEdgeStyle;startArrow=none;endArrow=none;segment=10;curved=1;rounded=0;" parent="e7j7X2xoP23D985uZrlY-1" source="e7j7X2xoP23D985uZrlY-106" target="e7j7X2xoP23D985uZrlY-108" edge="1" visible="0">
          <mxGeometry relative="1" as="geometry">
            <mxPoint x="750" y="-545" as="sourcePoint" />
          </mxGeometry>
        </mxCell>
        <mxCell id="e7j7X2xoP23D985uZrlY-108" value="&amp;nbsp;程序的顺序性" style="whiteSpace=wrap;html=1;rounded=1;arcSize=50;align=center;verticalAlign=middle;strokeWidth=1;autosize=1;spacing=4;treeFolding=1;treeMoving=1;newEdgeStyle={&quot;edgeStyle&quot;:&quot;entityRelationEdgeStyle&quot;,&quot;startArrow&quot;:&quot;none&quot;,&quot;endArrow&quot;:&quot;none&quot;,&quot;segment&quot;:10,&quot;curved&quot;:1};fillColor=#dae8fc;strokeColor=#6c8ebf;" parent="e7j7X2xoP23D985uZrlY-1" vertex="1" collapsed="1" visible="0">
          <mxGeometry x="767" y="200" width="120" height="30" as="geometry" />
        </mxCell>
        <mxCell id="e7j7X2xoP23D985uZrlY-109" value="" style="edgeStyle=entityRelationEdgeStyle;startArrow=none;endArrow=none;segment=10;curved=1;rounded=0;" parent="e7j7X2xoP23D985uZrlY-1" source="e7j7X2xoP23D985uZrlY-106" target="e7j7X2xoP23D985uZrlY-110" edge="1" visible="0">
          <mxGeometry relative="1" as="geometry">
            <mxPoint x="910" y="-545" as="sourcePoint" />
          </mxGeometry>
        </mxCell>
        <mxCell id="e7j7X2xoP23D985uZrlY-110" value="volatile 变量" style="whiteSpace=wrap;html=1;rounded=1;arcSize=50;align=center;verticalAlign=middle;strokeWidth=1;autosize=1;spacing=4;treeFolding=1;treeMoving=1;newEdgeStyle={&quot;edgeStyle&quot;:&quot;entityRelationEdgeStyle&quot;,&quot;startArrow&quot;:&quot;none&quot;,&quot;endArrow&quot;:&quot;none&quot;,&quot;segment&quot;:10,&quot;curved&quot;:1};fillColor=#dae8fc;strokeColor=#6c8ebf;" parent="e7j7X2xoP23D985uZrlY-1" vertex="1" collapsed="1" visible="0">
          <mxGeometry x="772" y="270" width="110" height="30" as="geometry" />
        </mxCell>
        <mxCell id="e7j7X2xoP23D985uZrlY-111" value="" style="edgeStyle=entityRelationEdgeStyle;startArrow=none;endArrow=none;segment=10;curved=1;rounded=0;" parent="e7j7X2xoP23D985uZrlY-1" source="e7j7X2xoP23D985uZrlY-106" target="e7j7X2xoP23D985uZrlY-112" edge="1" visible="0">
          <mxGeometry relative="1" as="geometry">
            <mxPoint x="910" y="-545" as="sourcePoint" />
          </mxGeometry>
        </mxCell>
        <mxCell id="e7j7X2xoP23D985uZrlY-112" value="传递性" style="whiteSpace=wrap;html=1;rounded=1;arcSize=50;align=center;verticalAlign=middle;strokeWidth=1;autosize=1;spacing=4;treeFolding=1;treeMoving=1;newEdgeStyle={&quot;edgeStyle&quot;:&quot;entityRelationEdgeStyle&quot;,&quot;startArrow&quot;:&quot;none&quot;,&quot;endArrow&quot;:&quot;none&quot;,&quot;segment&quot;:10,&quot;curved&quot;:1};fillColor=#dae8fc;strokeColor=#6c8ebf;" parent="e7j7X2xoP23D985uZrlY-1" vertex="1" collapsed="1" visible="0">
          <mxGeometry x="787" y="330" width="80" height="30" as="geometry" />
        </mxCell>
        <mxCell id="e7j7X2xoP23D985uZrlY-113" value="" style="edgeStyle=entityRelationEdgeStyle;startArrow=none;endArrow=none;segment=10;curved=1;rounded=0;" parent="e7j7X2xoP23D985uZrlY-1" source="e7j7X2xoP23D985uZrlY-106" target="e7j7X2xoP23D985uZrlY-114" edge="1" visible="0">
          <mxGeometry relative="1" as="geometry">
            <mxPoint x="910" y="-545" as="sourcePoint" />
          </mxGeometry>
        </mxCell>
        <mxCell id="e7j7X2xoP23D985uZrlY-114" value="管程中锁" style="whiteSpace=wrap;html=1;rounded=1;arcSize=50;align=center;verticalAlign=middle;strokeWidth=1;autosize=1;spacing=4;treeFolding=1;treeMoving=1;newEdgeStyle={&quot;edgeStyle&quot;:&quot;entityRelationEdgeStyle&quot;,&quot;startArrow&quot;:&quot;none&quot;,&quot;endArrow&quot;:&quot;none&quot;,&quot;segment&quot;:10,&quot;curved&quot;:1};fillColor=#dae8fc;strokeColor=#6c8ebf;" parent="e7j7X2xoP23D985uZrlY-1" vertex="1" collapsed="1" visible="0">
          <mxGeometry x="782" y="400" width="90" height="30" as="geometry" />
        </mxCell>
        <mxCell id="e7j7X2xoP23D985uZrlY-115" value="" style="edgeStyle=entityRelationEdgeStyle;startArrow=none;endArrow=none;segment=10;curved=1;rounded=0;" parent="e7j7X2xoP23D985uZrlY-1" source="e7j7X2xoP23D985uZrlY-106" target="e7j7X2xoP23D985uZrlY-116" edge="1" visible="0">
          <mxGeometry relative="1" as="geometry">
            <mxPoint x="910" y="-545" as="sourcePoint" />
          </mxGeometry>
        </mxCell>
        <mxCell id="e7j7X2xoP23D985uZrlY-116" value="线程 start()" style="whiteSpace=wrap;html=1;rounded=1;arcSize=50;align=center;verticalAlign=middle;strokeWidth=1;autosize=1;spacing=4;treeFolding=1;treeMoving=1;newEdgeStyle={&quot;edgeStyle&quot;:&quot;entityRelationEdgeStyle&quot;,&quot;startArrow&quot;:&quot;none&quot;,&quot;endArrow&quot;:&quot;none&quot;,&quot;segment&quot;:10,&quot;curved&quot;:1};fillColor=#dae8fc;strokeColor=#6c8ebf;" parent="e7j7X2xoP23D985uZrlY-1" vertex="1" collapsed="1" visible="0">
          <mxGeometry x="777" y="460" width="100" height="30" as="geometry" />
        </mxCell>
        <mxCell id="e7j7X2xoP23D985uZrlY-117" value="" style="edgeStyle=entityRelationEdgeStyle;startArrow=none;endArrow=none;segment=10;curved=1;rounded=0;" parent="e7j7X2xoP23D985uZrlY-1" source="e7j7X2xoP23D985uZrlY-106" target="e7j7X2xoP23D985uZrlY-118" edge="1" visible="0">
          <mxGeometry relative="1" as="geometry">
            <mxPoint x="910" y="-545" as="sourcePoint" />
          </mxGeometry>
        </mxCell>
        <mxCell id="e7j7X2xoP23D985uZrlY-118" value="线程 join()" style="whiteSpace=wrap;html=1;rounded=1;arcSize=50;align=center;verticalAlign=middle;strokeWidth=1;autosize=1;spacing=4;treeFolding=1;treeMoving=1;newEdgeStyle={&quot;edgeStyle&quot;:&quot;entityRelationEdgeStyle&quot;,&quot;startArrow&quot;:&quot;none&quot;,&quot;endArrow&quot;:&quot;none&quot;,&quot;segment&quot;:10,&quot;curved&quot;:1};fillColor=#dae8fc;strokeColor=#6c8ebf;" parent="e7j7X2xoP23D985uZrlY-1" vertex="1" collapsed="1" visible="0">
          <mxGeometry x="780" y="530" width="90" height="30" as="geometry" />
        </mxCell>
        <mxCell id="e7j7X2xoP23D985uZrlY-119" value="" style="edgeStyle=entityRelationEdgeStyle;startArrow=none;endArrow=none;segment=10;curved=1;rounded=0;" parent="e7j7X2xoP23D985uZrlY-1" source="e7j7X2xoP23D985uZrlY-4" target="e7j7X2xoP23D985uZrlY-120" edge="1" visible="0">
          <mxGeometry relative="1" as="geometry">
            <mxPoint x="580" y="-635" as="sourcePoint" />
          </mxGeometry>
        </mxCell>
        <mxCell id="e7j7X2xoP23D985uZrlY-120" value="final" style="whiteSpace=wrap;html=1;rounded=1;arcSize=50;align=center;verticalAlign=middle;strokeWidth=1;autosize=1;spacing=4;treeFolding=1;treeMoving=1;newEdgeStyle={&quot;edgeStyle&quot;:&quot;entityRelationEdgeStyle&quot;,&quot;startArrow&quot;:&quot;none&quot;,&quot;endArrow&quot;:&quot;none&quot;,&quot;segment&quot;:10,&quot;curved&quot;:1};fillColor=#dae8fc;strokeColor=#6c8ebf;" parent="e7j7X2xoP23D985uZrlY-1" vertex="1" visible="0">
          <mxGeometry x="460" y="430" width="60" height="30" as="geometry" />
        </mxCell>
        <mxCell id="e7j7X2xoP23D985uZrlY-121" value="" style="edgeStyle=entityRelationEdgeStyle;startArrow=none;endArrow=none;segment=10;curved=1;rounded=0;" parent="e7j7X2xoP23D985uZrlY-1" source="e7j7X2xoP23D985uZrlY-4" target="e7j7X2xoP23D985uZrlY-122" edge="1" visible="0">
          <mxGeometry relative="1" as="geometry">
            <mxPoint x="530" y="-545" as="sourcePoint" />
          </mxGeometry>
        </mxCell>
        <mxCell id="e7j7X2xoP23D985uZrlY-122" value="原子性" style="whiteSpace=wrap;html=1;rounded=1;arcSize=50;align=center;verticalAlign=middle;strokeWidth=1;autosize=1;spacing=4;treeFolding=1;treeMoving=1;newEdgeStyle={&quot;edgeStyle&quot;:&quot;entityRelationEdgeStyle&quot;,&quot;startArrow&quot;:&quot;none&quot;,&quot;endArrow&quot;:&quot;none&quot;,&quot;segment&quot;:10,&quot;curved&quot;:1};fillColor=#dae8fc;strokeColor=#6c8ebf;" parent="e7j7X2xoP23D985uZrlY-1" vertex="1" collapsed="1" visible="0">
          <mxGeometry x="450" y="300" width="80" height="30" as="geometry" />
        </mxCell>
        <mxCell id="e7j7X2xoP23D985uZrlY-123" value="" style="edgeStyle=entityRelationEdgeStyle;startArrow=none;endArrow=none;segment=10;curved=1;rounded=0;" parent="e7j7X2xoP23D985uZrlY-1" source="e7j7X2xoP23D985uZrlY-4" target="e7j7X2xoP23D985uZrlY-124" edge="1" visible="0">
          <mxGeometry relative="1" as="geometry">
            <mxPoint x="530" y="-545" as="sourcePoint" />
          </mxGeometry>
        </mxCell>
        <mxCell id="e7j7X2xoP23D985uZrlY-124" value="死锁" style="whiteSpace=wrap;html=1;rounded=1;arcSize=50;align=center;verticalAlign=middle;strokeWidth=1;autosize=1;spacing=4;treeFolding=1;treeMoving=1;newEdgeStyle={&quot;edgeStyle&quot;:&quot;entityRelationEdgeStyle&quot;,&quot;startArrow&quot;:&quot;none&quot;,&quot;endArrow&quot;:&quot;none&quot;,&quot;segment&quot;:10,&quot;curved&quot;:1};fillColor=#dae8fc;strokeColor=#6c8ebf;" parent="e7j7X2xoP23D985uZrlY-1" vertex="1" visible="0">
          <mxGeometry x="460" y="470" width="60" height="30" as="geometry" />
        </mxCell>
      </root>
    </mxGraphModel>
  </diagram>
</mxfile>
